<svg width="32" height="32" viewBox="0 0 32 32" fill="none" xmlns="http://www.w3.org/2000/svg">
<path d="M24.2511 23.7783C22.2032 23.7783 20.5146 25.431 20.5146 27.5148C20.5146 29.5627 22.1673 31.2512 24.2511 31.2512C26.299 31.2512 27.9876 29.5986 27.9876 27.5148C27.9516 25.4669 26.299 23.7783 24.2511 23.7783Z" fill="url(#paint0_linear_1659_11972)"/>
<path d="M30.8258 5.95803C30.754 5.95803 30.6462 5.9221 30.5384 5.9221H7.90406L7.54478 3.51496C7.32922 1.93414 5.96397 0.748535 4.34723 0.748535H1.4371C0.646696 0.748535 0 1.39523 0 2.18564C0 2.97604 0.646696 3.62274 1.4371 3.62274H4.34723C4.52687 3.62274 4.67058 3.76645 4.70651 3.94609L6.93402 19.1075C7.22144 21.0117 8.8741 22.4488 10.8142 22.4488H25.76C27.6283 22.4488 29.245 21.1194 29.6402 19.2871L31.9755 7.6107C32.1192 6.85622 31.6162 6.10174 30.8258 5.95803Z" fill="url(#paint1_linear_1659_11972)"/>
<path d="M15.0896 27.3351C15.0177 25.3591 13.3651 23.7783 11.3891 23.7783C9.30526 23.8861 7.72445 25.6106 7.7963 27.6585C7.86816 29.6345 9.4849 31.2153 11.4609 31.2153H11.5328C13.5806 31.1075 15.1974 29.383 15.0896 27.3351Z" fill="url(#paint2_linear_1659_11972)"/>
<defs>
<linearGradient id="paint0_linear_1659_11972" x1="20.5146" y1="27.5148" x2="27.9876" y2="27.5148" gradientUnits="userSpaceOnUse">
<stop stop-color="#D26138"/>
<stop offset="1" stop-color="#9F3609"/>
</linearGradient>
<linearGradient id="paint1_linear_1659_11972" x1="0" y1="11.5987" x2="32" y2="11.5987" gradientUnits="userSpaceOnUse">
<stop stop-color="#D26138"/>
<stop offset="1" stop-color="#9F3609"/>
</linearGradient>
<linearGradient id="paint2_linear_1659_11972" x1="7.79395" y1="27.4968" x2="15.0947" y2="27.4968" gradientUnits="userSpaceOnUse">
<stop stop-color="#D26138"/>
<stop offset="1" stop-color="#9F3609"/>
</linearGradient>
</defs>
</svg>
